<?xml version="1.0" encoding="UTF-8" standalone="no"?><!DOCTYPE svg PUBLIC "-//W3C//DTD SVG 1.1//EN" "http://www.w3.org/Graphics/SVG/1.1/DTD/svg11.dtd"><!-- Generated by graphviz version 2.40.1 (20161225.0304)
 --><!-- Title: nbr Pages: 1 --><svg xmlns="http://www.w3.org/2000/svg" xmlns:xlink="http://www.w3.org/1999/xlink" width="1096pt" height="314pt" viewBox="0.00 0.00 1095.80 314.00">
<g id="graph0" class="graph" transform="scale(1 1) rotate(0) translate(4 310)">
<title>nbr</title>
<polygon fill="none" stroke="transparent" points="-4,4 -4,-310 1091.8016,-310 1091.8016,4 -4,4"/>
<g id="clust1" class="cluster">
<title>cluster_organes</title>
<polygon fill="none" stroke="#000000" points="8,-8 8,-298 781.0498,-298 781.0498,-8 8,-8"/>
<text text-anchor="middle" x="394.5249" y="-271.5" font-family="Times,serif" font-size="25.00" fill="#000000">Organes de la formation</text>
</g>
<!-- cs -->
<g id="node1" class="node">
<title>cs</title>
<ellipse fill="none" stroke="#000000" cx="163.941" cy="-164" rx="94.6657" ry="18"/>
<text text-anchor="middle" x="163.941" y="-159.8" font-family="Times,serif" font-size="14.00" fill="#000000">le comité scientifique</text>
</g>
<!-- cp -->
<g id="node2" class="node">
<title>cp</title>
<ellipse fill="none" stroke="#000000" cx="658.6285" cy="-126" rx="92.3428" ry="18"/>
<text text-anchor="middle" x="658.6285" y="-121.8" font-family="Times,serif" font-size="14.00" fill="#000000">le comité de pilotage</text>
</g>
<!-- cs&#45;&gt;cp -->
<g id="edge2" class="edge">
<title>cs-&gt;cp</title>
<path fill="none" stroke="#000000" d="M235.1388,-152.1047C263.5954,-147.765 296.716,-143.2321 326.8819,-140.4 403.4292,-133.2135 490.2557,-129.6066 555.8767,-127.8001"/>
<polygon fill="#000000" stroke="#000000" points="556.318,-131.2897 566.2215,-127.5253 556.1321,-124.2922 556.318,-131.2897"/>
<text text-anchor="middle" x="428.0445" y="-161" font-family="Times,serif" font-size="14.00" fill="#000000">décide et communique </text>
<text text-anchor="middle" x="428.0445" y="-144.2" font-family="Times,serif" font-size="14.00" fill="#000000">le cadre pédagogique et scientifique</text>
</g>
<!-- cp&#45;&gt;cs -->
<g id="edge3" class="edge">
<title>cp-&gt;cs</title>
<path fill="none" stroke="#000000" d="M623.8767,-142.7428C598.3492,-154.0761 562.4658,-168.0311 529.2071,-174 434.6849,-190.9637 324.2278,-184.3685 249.7328,-176.1448"/>
<polygon fill="#000000" stroke="#000000" points="249.7971,-172.6296 239.4653,-174.9759 249.0052,-179.5847 249.7971,-172.6296"/>
<text text-anchor="middle" x="428.0445" y="-205" font-family="Times,serif" font-size="14.00" fill="#000000">décide et communique </text>
<text text-anchor="middle" x="428.0445" y="-188.2" font-family="Times,serif" font-size="14.00" fill="#000000">le cadre administratif et financier</text>
</g>
<!-- oes -->
<g id="node4" class="node">
<title>oes</title>
<ellipse fill="none" stroke="#000000" cx="952.2499" cy="-126" rx="35.3489" ry="18"/>
<text text-anchor="middle" x="952.2499" y="-121.8" font-family="Times,serif" font-size="14.00" fill="#000000">l'OES</text>
</g>
<!-- cp&#45;&gt;oes -->
<g id="edge1" class="edge">
<title>cp-&gt;oes</title>
<path fill="none" stroke="#000000" d="M751.1291,-126C803.0425,-126 865.5027,-126 906.8989,-126"/>
<polygon fill="#000000" stroke="#000000" points="906.9503,-129.5001 916.9503,-126 906.9503,-122.5001 906.9503,-129.5001"/>
<text text-anchor="middle" x="844.0628" y="-130.2" font-family="Times,serif" font-size="14.00" fill="#000000">demande validation</text>
</g>
<!-- gc -->
<g id="node3" class="node">
<title>gc</title>
<ellipse fill="none" stroke="#000000" cx="163.941" cy="-67" rx="125.8819" ry="29.3315"/>
<text text-anchor="middle" x="163.941" y="-71.2" font-family="Times,serif" font-size="14.00" fill="#000000">le groupe consultatif </text>
<text text-anchor="middle" x="163.941" y="-54.4" font-family="Times,serif" font-size="14.00" fill="#000000"> (associations pro. en Valais)</text>
</g>
<!-- gc&#45;&gt;cp -->
<g id="edge4" class="edge">
<title>gc-&gt;cp</title>
<path fill="none" stroke="#000000" d="M289.7672,-68.7268C360.5257,-71.2784 450.2446,-77.154 529.2071,-90.4 553.2309,-94.43 579.214,-101.1045 601.5509,-107.5919"/>
<polygon fill="#000000" stroke="#000000" points="600.6274,-110.9686 611.2095,-110.4505 602.614,-104.2564 600.6274,-110.9686"/>
<text text-anchor="middle" x="428.0445" y="-111" font-family="Times,serif" font-size="14.00" fill="#000000">adresse </text>
<text text-anchor="middle" x="428.0445" y="-94.2" font-family="Times,serif" font-size="14.00" fill="#000000">les commentaires et propositions</text>
</g>
<!-- se -->
<g id="node5" class="node">
<title>se</title>
<ellipse fill="none" stroke="#000000" cx="1056.1128" cy="-126" rx="31.8788" ry="18"/>
<text text-anchor="middle" x="1056.1128" y="-121.8" font-family="Times,serif" font-size="14.00" fill="#000000">le SE</text>
</g>
<!-- oes&#45;&gt;se -->
<g id="edge5" class="edge">
<title>oes-&gt;se</title>
<path fill="none" stroke="#000000" d="M985.3983,-119.6588C995.0919,-119.2187 1005.7946,-119.134 1015.877,-119.4045"/>
<polygon fill="#000000" stroke="#000000" points="1015.9584,-122.9105 1026.0909,-119.8151 1016.2396,-115.9162 1015.9584,-122.9105"/>
</g>
<!-- se&#45;&gt;oes -->
<g id="edge6" class="edge">
<title>se-&gt;oes</title>
<path fill="none" stroke="#000000" d="M1026.0909,-132.1849C1016.5367,-132.7078 1005.771,-132.8678 995.4752,-132.665"/>
<polygon fill="#000000" stroke="#000000" points="995.5056,-129.1642 985.3983,-132.3412 995.2807,-136.1606 995.5056,-129.1642"/>
</g>
</g>
</svg>